<svg xmlns="http://www.w3.org/2000/svg" viewBox="0 0 1920 1080" fill="none">
  <defs>
    <linearGradient id="base" x1="0" y1="0" x2="1920" y2="1080" gradientUnits="userSpaceOnUse">
      <stop stop-color="#CFEFFF"/>
      <stop offset=".34" stop-color="#FFE6A6"/>
      <stop offset=".62" stop-color="#F7A26D"/>
      <stop offset="1" stop-color="#A867B3"/>
    </linearGradient>
    <filter id="grain" x="-10%" y="-10%" width="120%" height="120%">
      <feTurbulence type="fractalNoise" baseFrequency=".82" numOctaves="3" stitchTiles="stitch"/>
      <feColorMatrix type="saturate" values="0"/>
      <feComponentTransfer><feFuncA type="table" tableValues="0 .09"/></feComponentTransfer>
    </filter>
  </defs>
  <rect width="1920" height="1080" fill="url(#base)"/>
  <path d="M-18 594C176 459 320 455 495 526C642 586 740 625 884 566C1054 496 1156 361 1353 387C1540 412 1646 539 1938 445V1080H-18V594Z" fill="#FFE6B2" opacity=".66"/>
  <path d="M-32 712C174 611 329 618 520 676C721 737 833 752 1016 675C1196 599 1325 515 1509 572C1659 619 1769 696 1948 643V1080H-32V712Z" fill="#E58B78" opacity=".52"/>
  <path d="M-34 856C164 757 337 797 526 829C716 862 821 976 1015 927C1195 882 1286 740 1468 754C1629 767 1747 891 1950 840V1080H-34V856Z" fill="#855A97" opacity=".58"/>
  <path d="M0 995C229 923 403 991 603 946C817 898 937 820 1135 853C1344 888 1463 1015 1665 969C1793 940 1879 875 1920 842V1080H0V995Z" fill="#FFFDF8" opacity=".46"/>
  <rect width="1920" height="1080" filter="url(#grain)" opacity=".8"/>
</svg>
