<svg xmlns="http://www.w3.org/2000/svg" viewBox="0 0 1920 1080" fill="none">
  <defs>
    <linearGradient id="base" x1="210" y1="70" x2="1680" y2="1040" gradientUnits="userSpaceOnUse">
      <stop stop-color="#FFF9E8"/>
      <stop offset=".34" stop-color="#FFEAA8"/>
      <stop offset=".67" stop-color="#FF9E7A"/>
      <stop offset="1" stop-color="#FF3F72"/>
    </linearGradient>
    <linearGradient id="petalA" x1="564" y1="124" x2="1098" y2="1076" gradientUnits="userSpaceOnUse">
      <stop stop-color="#FFFFFF" stop-opacity=".92"/>
      <stop offset=".3" stop-color="#FFE7D0" stop-opacity=".72"/>
      <stop offset=".7" stop-color="#FF5C57" stop-opacity=".74"/>
      <stop offset="1" stop-color="#F52780" stop-opacity=".56"/>
    </linearGradient>
    <linearGradient id="petalB" x1="1010" y1="-20" x2="1520" y2="1030" gradientUnits="userSpaceOnUse">
      <stop stop-color="#FFF5B8"/>
      <stop offset=".42" stop-color="#FF8B4B"/>
      <stop offset="1" stop-color="#FF2080"/>
    </linearGradient>
    <filter id="shadow" x="-20%" y="-20%" width="140%" height="140%">
      <feDropShadow dx="0" dy="24" stdDeviation="38" flood-color="#9D2D18" flood-opacity=".16"/>
    </filter>
    <filter id="grain" x="-10%" y="-10%" width="120%" height="120%">
      <feTurbulence type="fractalNoise" baseFrequency=".74" numOctaves="4" stitchTiles="stitch"/>
      <feColorMatrix type="saturate" values="0"/>
      <feComponentTransfer><feFuncA type="table" tableValues="0 .105"/></feComponentTransfer>
    </filter>
  </defs>
  <rect width="1920" height="1080" fill="url(#base)"/>
  <g filter="url(#shadow)" opacity=".92">
    <path d="M448 1198C408 948 436 726 555 522C674 319 849 177 1021 -35C1004 304 964 592 859 787C754 982 600 1095 448 1198Z" fill="url(#petalA)"/>
    <path d="M706 1170C659 893 731 657 889 438C1019 258 1133 147 1220 -64C1261 237 1227 543 1117 760C1013 964 860 1081 706 1170Z" fill="url(#petalB)" opacity=".82"/>
    <path d="M1020 1165C1004 896 1061 648 1216 430C1352 239 1485 111 1590 -80C1610 234 1564 535 1441 742C1322 942 1181 1055 1020 1165Z" fill="url(#petalA)" opacity=".78"/>
    <path d="M144 1024C227 784 354 612 541 474C716 345 887 295 1110 150C973 423 800 625 596 760C433 868 280 941 144 1024Z" fill="#FFFFFF" opacity=".48"/>
  </g>
  <path d="M0 916C178 855 334 893 498 842C674 787 787 649 968 655C1149 661 1257 814 1426 796C1597 778 1745 664 1920 642V1080H0V916Z" fill="#FFFDF8" opacity=".28"/>
  <rect width="1920" height="1080" filter="url(#grain)" opacity=".86"/>
</svg>
